<svg width="263" height="51" viewBox="0 0 263 51" fill="none" xmlns="http://www.w3.org/2000/svg">
<path d="M52.9837 32.9991V17.9991H56.6737L56.9137 22.4991L56.4037 22.0191C56.6437 21.0391 57.0237 20.2291 57.5437 19.5891C58.0637 18.9491 58.6937 18.4791 59.4337 18.1791C60.1937 17.8591 61.0237 17.6991 61.9237 17.6991C62.9637 17.6991 63.8837 17.8991 64.6837 18.2991C65.5037 18.6991 66.1437 19.3091 66.6037 20.1291C67.0837 20.9291 67.3237 21.9391 67.3237 23.1591V32.9991H63.2137V24.3291C63.2137 23.0491 62.9637 22.1691 62.4637 21.6891C61.9637 21.1891 61.3137 20.9391 60.5137 20.9391C59.9537 20.9391 59.4037 21.0791 58.8637 21.3591C58.3437 21.6191 57.9137 22.0491 57.5737 22.6491C57.2537 23.2491 57.0937 24.0491 57.0937 25.0491V32.9991H52.9837ZM72.7279 15.8391C71.8679 15.8391 71.2279 15.6591 70.8079 15.2991C70.3879 14.9191 70.1779 14.3691 70.1779 13.6491C70.1779 12.9091 70.3879 12.3591 70.8079 11.9991C71.2279 11.6191 71.8679 11.4291 72.7279 11.4291C73.5879 11.4291 74.228 11.6191 74.6479 11.9991C75.0679 12.3591 75.2779 12.9091 75.2779 13.6491C75.2779 14.3691 75.0679 14.9191 74.6479 15.2991C74.228 15.6591 73.5879 15.8391 72.7279 15.8391ZM74.7679 17.9991V32.9991H70.6579V17.9991H74.7679ZM85.0347 17.6991C86.3747 17.6991 87.5047 17.8991 88.4247 18.2991C89.3647 18.6791 90.1147 19.2091 90.6747 19.8891C91.2547 20.5491 91.6647 21.2891 91.9047 22.1091L88.0647 23.4891C87.8647 22.5891 87.5247 21.9091 87.0447 21.4491C86.5647 20.9891 85.9147 20.7591 85.0947 20.7591C84.3347 20.7591 83.6847 20.9391 83.1447 21.2991C82.6047 21.6391 82.1947 22.1691 81.9147 22.8891C81.6347 23.5891 81.4947 24.4691 81.4947 25.5291C81.4947 26.5891 81.6347 27.4691 81.9147 28.1691C82.2147 28.8691 82.6347 29.3891 83.1747 29.7291C83.7347 30.0691 84.3847 30.2391 85.1247 30.2391C85.7247 30.2391 86.2347 30.1391 86.6547 29.9391C87.0747 29.7191 87.4147 29.4091 87.6747 29.0091C87.9547 28.6091 88.1447 28.1291 88.2447 27.5691L91.9647 28.7691C91.7447 29.6691 91.3347 30.4591 90.7347 31.1391C90.1347 31.8191 89.3647 32.3491 88.4247 32.7291C87.4847 33.1091 86.3947 33.2991 85.1547 33.2991C83.6147 33.2991 82.2547 32.9891 81.0747 32.3691C79.8947 31.7491 78.9847 30.8591 78.3447 29.6991C77.7047 28.5391 77.3847 27.1391 77.3847 25.4991C77.3847 23.8591 77.7047 22.4591 78.3447 21.2991C78.9847 20.1391 79.8847 19.2491 81.0447 18.6291C82.2047 18.0091 83.5347 17.6991 85.0347 17.6991ZM101.218 33.2991C99.6383 33.2991 98.2583 32.9891 97.0783 32.3691C95.9183 31.7491 95.0183 30.8591 94.3783 29.6991C93.7383 28.5391 93.4183 27.1391 93.4183 25.4991C93.4183 23.8591 93.7383 22.4591 94.3783 21.2991C95.0183 20.1391 95.9083 19.2491 97.0483 18.6291C98.2083 18.0091 99.5283 17.6991 101.008 17.6991C102.528 17.6991 103.818 18.0091 104.878 18.6291C105.938 19.2291 106.748 20.0591 107.308 21.1191C107.868 22.1591 108.148 23.3491 108.148 24.6891C108.148 25.0891 108.138 25.4691 108.118 25.8291C108.098 26.1891 108.068 26.5091 108.028 26.7891H96.0583V23.9391H106.228L104.248 24.6591C104.248 23.3991 103.958 22.4291 103.378 21.7491C102.818 21.0691 102.018 20.7291 100.978 20.7291C100.218 20.7291 99.5583 20.9091 98.9983 21.2691C98.4583 21.6291 98.0483 22.1691 97.7683 22.8891C97.4883 23.5891 97.3483 24.4791 97.3483 25.5591C97.3483 26.6191 97.4983 27.4991 97.7983 28.1991C98.1183 28.8791 98.5583 29.3891 99.1183 29.7291C99.6983 30.0691 100.388 30.2391 101.188 30.2391C102.068 30.2391 102.778 30.0691 103.318 29.7291C103.858 29.3891 104.278 28.9191 104.578 28.3191L107.848 29.5791C107.528 30.3591 107.038 31.0291 106.378 31.5891C105.738 32.1491 104.968 32.5791 104.068 32.8791C103.188 33.1591 102.238 33.2991 101.218 33.2991ZM129.671 17.9991H134.051L129.251 32.9991H124.511L121.241 22.7991L118.091 32.9991H113.351L108.551 17.9991H112.931L115.931 29.4891L119.261 17.9991H123.341L126.701 29.4891L129.671 17.9991ZM144.016 23.4291C144.016 22.5691 143.766 21.8991 143.266 21.4191C142.786 20.9391 142.146 20.6991 141.346 20.6991C140.606 20.6991 139.956 20.8891 139.396 21.2691C138.836 21.6491 138.426 22.2791 138.166 23.1591L134.656 22.0791C134.996 20.7591 135.736 19.6991 136.876 18.8991C138.036 18.0991 139.586 17.6991 141.526 17.6991C142.846 17.6991 143.996 17.9091 144.976 18.3291C145.956 18.7291 146.716 19.3391 147.256 20.1591C147.816 20.9791 148.096 22.0091 148.096 23.2491V29.3391C148.096 30.0991 148.456 30.4791 149.176 30.4791C149.516 30.4791 149.836 30.4291 150.136 30.3291L149.896 32.8791C149.376 33.1391 148.726 33.2691 147.946 33.2691C147.246 33.2691 146.616 33.1491 146.056 32.9091C145.496 32.6691 145.056 32.3091 144.736 31.8291C144.416 31.3291 144.256 30.7091 144.256 29.9691V29.8491L144.976 29.7291C144.856 30.4891 144.526 31.1391 143.986 31.6791C143.446 32.1991 142.786 32.5991 142.006 32.8791C141.246 33.1591 140.456 33.2991 139.636 33.2991C138.616 33.2991 137.736 33.1491 136.996 32.8491C136.256 32.5291 135.686 32.0691 135.286 31.4691C134.886 30.8691 134.686 30.1291 134.686 29.2491C134.686 28.1291 135.046 27.2191 135.766 26.5191C136.486 25.7991 137.516 25.3091 138.856 25.0491L144.496 23.9091L144.466 26.4591L140.866 27.1791C140.186 27.3191 139.666 27.5091 139.306 27.7491C138.966 27.9691 138.796 28.3391 138.796 28.8591C138.796 29.3591 138.976 29.7391 139.336 29.9991C139.716 30.2591 140.166 30.3891 140.686 30.3891C141.106 30.3891 141.516 30.3391 141.916 30.2391C142.316 30.1391 142.676 29.9791 142.996 29.7591C143.316 29.5391 143.566 29.2391 143.746 28.8591C143.926 28.4791 144.016 28.0191 144.016 27.4791V23.4291ZM151.793 32.9991V17.9991H155.363L155.633 20.9391C156.033 19.8991 156.613 19.0991 157.373 18.5391C158.153 17.9791 159.123 17.6991 160.283 17.6991C160.623 17.6991 160.933 17.7291 161.213 17.7891C161.493 17.8491 161.723 17.9291 161.903 18.0291L161.423 21.4791C161.223 21.3991 160.973 21.3391 160.673 21.2991C160.393 21.2591 160.023 21.2391 159.563 21.2391C158.963 21.2391 158.383 21.3891 157.823 21.6891C157.263 21.9691 156.803 22.4091 156.443 23.0091C156.083 23.5891 155.903 24.3291 155.903 25.2291V32.9991H151.793ZM170.216 33.2991C168.636 33.2991 167.256 32.9891 166.076 32.3691C164.916 31.7491 164.016 30.8591 163.376 29.6991C162.736 28.5391 162.416 27.1391 162.416 25.4991C162.416 23.8591 162.736 22.4591 163.376 21.2991C164.016 20.1391 164.906 19.2491 166.046 18.6291C167.206 18.0091 168.526 17.6991 170.006 17.6991C171.526 17.6991 172.816 18.0091 173.876 18.6291C174.936 19.2291 175.746 20.0591 176.306 21.1191C176.866 22.1591 177.146 23.3491 177.146 24.6891C177.146 25.0891 177.136 25.4691 177.116 25.8291C177.096 26.1891 177.066 26.5091 177.026 26.7891H165.056V23.9391H175.226L173.246 24.6591C173.246 23.3991 172.956 22.4291 172.376 21.7491C171.816 21.0691 171.016 20.7291 169.976 20.7291C169.216 20.7291 168.556 20.9091 167.996 21.2691C167.456 21.6291 167.046 22.1691 166.766 22.8891C166.486 23.5891 166.346 24.4791 166.346 25.5591C166.346 26.6191 166.496 27.4991 166.796 28.1991C167.116 28.8791 167.556 29.3891 168.116 29.7291C168.696 30.0691 169.386 30.2391 170.186 30.2391C171.066 30.2391 171.776 30.0691 172.316 29.7291C172.856 29.3891 173.276 28.9191 173.576 28.3191L176.846 29.5791C176.526 30.3591 176.036 31.0291 175.376 31.5891C174.736 32.1491 173.966 32.5791 173.066 32.8791C172.186 33.1591 171.236 33.2991 170.216 33.2991ZM179.729 32.9991V11.4291H183.839V20.5491C184.319 19.5891 184.979 18.8791 185.819 18.4191C186.659 17.9391 187.609 17.6991 188.669 17.6991C189.709 17.6991 190.629 17.8991 191.429 18.2991C192.249 18.6991 192.889 19.3091 193.349 20.1291C193.829 20.9291 194.069 21.9391 194.069 23.1591V32.9991H189.959V24.3591C189.959 23.0591 189.709 22.1691 189.209 21.6891C188.709 21.1891 188.069 20.9391 187.289 20.9391C186.709 20.9391 186.149 21.0791 185.609 21.3591C185.089 21.6191 184.659 22.0591 184.319 22.6791C183.999 23.2791 183.839 24.0791 183.839 25.0791V32.9991H179.729ZM204.243 17.6991C205.763 17.6991 207.093 18.0091 208.233 18.6291C209.393 19.2491 210.293 20.1391 210.933 21.2991C211.593 22.4591 211.923 23.8591 211.923 25.4991C211.923 27.1191 211.593 28.5191 210.933 29.6991C210.293 30.8591 209.393 31.7491 208.233 32.3691C207.093 32.9891 205.763 33.2991 204.243 33.2991C202.743 33.2991 201.413 32.9891 200.253 32.3691C199.093 31.7491 198.183 30.8591 197.523 29.6991C196.883 28.5191 196.563 27.1191 196.563 25.4991C196.563 23.8591 196.883 22.4591 197.523 21.2991C198.183 20.1391 199.093 19.2491 200.253 18.6291C201.413 18.0091 202.743 17.6991 204.243 17.6991ZM204.243 20.7591C203.483 20.7591 202.833 20.9391 202.293 21.2991C201.773 21.6391 201.373 22.1591 201.093 22.8591C200.813 23.5591 200.673 24.4391 200.673 25.4991C200.673 26.5591 200.813 27.4391 201.093 28.1391C201.373 28.8391 201.773 29.3691 202.293 29.7291C202.833 30.0691 203.483 30.2391 204.243 30.2391C204.983 30.2391 205.613 30.0691 206.133 29.7291C206.673 29.3691 207.083 28.8391 207.363 28.1391C207.643 27.4391 207.783 26.5591 207.783 25.4991C207.783 24.4391 207.643 23.5591 207.363 22.8591C207.083 22.1591 206.673 21.6391 206.133 21.2991C205.613 20.9391 204.983 20.7591 204.243 20.7591ZM219.682 33.2991C218.682 33.2991 217.782 33.1191 216.982 32.7591C216.182 32.3991 215.542 31.8291 215.062 31.0491C214.602 30.2491 214.372 29.2191 214.372 27.9591V17.9991H218.482V26.9691C218.482 28.1291 218.722 28.9391 219.202 29.3991C219.682 29.8391 220.372 30.0591 221.272 30.0591C221.692 30.0591 222.102 29.9891 222.502 29.8491C222.902 29.6891 223.252 29.4491 223.552 29.1291C223.872 28.8091 224.122 28.3991 224.302 27.8991C224.482 27.3791 224.572 26.7691 224.572 26.0691V17.9991H228.682V32.9991H225.022L224.872 30.3891C224.372 31.3891 223.682 32.1291 222.802 32.6091C221.942 33.0691 220.902 33.2991 219.682 33.2991ZM238.107 33.2991C236.587 33.2991 235.197 33.0291 233.937 32.4891C232.697 31.9491 231.687 31.1891 230.907 30.2091L233.277 27.8091C233.757 28.5291 234.397 29.1191 235.197 29.5791C235.997 30.0391 236.947 30.2691 238.047 30.2691C238.827 30.2691 239.447 30.1591 239.907 29.9391C240.387 29.6991 240.627 29.3291 240.627 28.8291C240.627 28.5091 240.517 28.2391 240.297 28.0191C240.077 27.7791 239.637 27.5891 238.977 27.4491L236.337 26.9091C234.597 26.5491 233.357 26.0091 232.617 25.2891C231.897 24.5491 231.537 23.5991 231.537 22.4391C231.537 21.6191 231.777 20.8491 232.257 20.1291C232.757 19.4091 233.497 18.8291 234.477 18.3891C235.457 17.9291 236.677 17.6991 238.137 17.6991C239.637 17.6991 240.937 17.9391 242.037 18.4191C243.157 18.8791 244.037 19.5691 244.677 20.4891L242.217 22.8891C241.777 22.1891 241.197 21.6591 240.477 21.2991C239.777 20.9191 239.037 20.7291 238.257 20.7291C237.697 20.7291 237.217 20.7891 236.817 20.9091C236.417 21.0291 236.117 21.1991 235.917 21.4191C235.717 21.6191 235.617 21.8791 235.617 22.1991C235.617 22.5191 235.757 22.7991 236.037 23.0391C236.317 23.2591 236.827 23.4491 237.567 23.6091L240.627 24.2391C242.107 24.5391 243.167 25.0491 243.807 25.7691C244.447 26.4691 244.767 27.3191 244.767 28.3191C244.767 29.2791 244.507 30.1391 243.987 30.8991C243.487 31.6391 242.737 32.2291 241.737 32.6691C240.757 33.0891 239.547 33.2991 238.107 33.2991ZM254.046 33.2991C252.466 33.2991 251.086 32.9891 249.906 32.3691C248.746 31.7491 247.846 30.8591 247.206 29.6991C246.566 28.5391 246.246 27.1391 246.246 25.4991C246.246 23.8591 246.566 22.4591 247.206 21.2991C247.846 20.1391 248.736 19.2491 249.876 18.6291C251.036 18.0091 252.356 17.6991 253.836 17.6991C255.356 17.6991 256.646 18.0091 257.706 18.6291C258.766 19.2291 259.576 20.0591 260.136 21.1191C260.696 22.1591 260.976 23.3491 260.976 24.6891C260.976 25.0891 260.966 25.4691 260.946 25.8291C260.926 26.1891 260.896 26.5091 260.856 26.7891H248.886V23.9391H259.056L257.076 24.6591C257.076 23.3991 256.786 22.4291 256.206 21.7491C255.646 21.0691 254.846 20.7291 253.806 20.7291C253.046 20.7291 252.386 20.9091 251.826 21.2691C251.286 21.6291 250.876 22.1691 250.596 22.8891C250.316 23.5891 250.176 24.4791 250.176 25.5591C250.176 26.6191 250.326 27.4991 250.626 28.1991C250.946 28.8791 251.386 29.3891 251.946 29.7291C252.526 30.0691 253.216 30.2391 254.016 30.2391C254.896 30.2391 255.606 30.0691 256.146 29.7291C256.686 29.3891 257.106 28.9191 257.406 28.3191L260.676 29.5791C260.356 30.3591 259.866 31.0291 259.206 31.5891C258.566 32.1491 257.796 32.5791 256.896 32.8791C256.016 33.1591 255.066 33.2991 254.046 33.2991Z" fill="#072227"/>
<g clip-path="url(#clip0_509_34)">
<path d="M26.2598 26.903L13.684 35.0265C12.6597 35.9096 11.1264 35.7795 10.2595 34.7357C9.39271 33.6919 9.52051 32.13 10.5449 31.2468L20.2598 25.403L10.5449 19.4664C9.52051 18.5833 9.39283 17.0213 10.2595 15.9775C11.1285 14.9315 12.6622 14.8059 13.684 15.6869L26.2598 23.403C27.4079 24.3927 27.4046 25.916 26.2598 26.903Z" fill="#4FBDBA"/>
</g>
<g clip-path="url(#clip1_509_34)">
<path d="M39.7544 23.7207L27.1787 15.5973C26.1544 14.7141 24.621 14.8442 23.7542 15.888C22.8873 16.9318 23.0151 18.4938 24.0396 19.3769L33.7544 25.2207L24.0396 31.1573C23.0151 32.0404 22.8875 33.6024 23.7542 34.6462C24.6231 35.6922 26.1568 35.8179 27.1787 34.9368L39.7544 27.2207C40.9025 26.231 40.8992 24.7077 39.7544 23.7207Z" fill="#35858B"/>
</g>
<defs>
<clipPath id="clip0_509_34">
<rect width="20" height="21" fill="white" transform="matrix(1 0 0 -1 9.25977 35.903)"/>
</clipPath>
<clipPath id="clip1_509_34">
<rect width="20" height="21" fill="white" transform="translate(22.7544 14.7207)"/>
</clipPath>
</defs>
</svg>
